#!OML:ASF H:\Terrain\Patient Classification 1\Walking\steve\steve.ASF
:FULLY-SPECIFIED
:DEGREES
173
root 7.24047 15.3707 3.46645 7.49286 3.32615 4.4482
lowerback 0.23553 -3.55234 -3.84115
upperback -2.79782 -4.79418 0.916098
thorax -2.62044 -2.2959 3.19202
lowerneck -10.5829 0.998247 0.0762318
upperneck 10.0304 1.54467 -1.7713
head 4.75746 0.647108 -0.450553
rclavicle -2.27608e-014 3.97569e-015
rhumerus -87.7022 -18.4272 -13.8575
rradius 15.1507
rwrist 34.9582
rhand -14.9658 -35.7886
rfingers 7.12502
rthumb 11.1978 -65.4697
lclavicle -2.27608e-014 3.97569e-015
lhumerus 29.0209 -4.02061 75.3232
lradius 37.7477
lwrist 27.7343
lhand -27.1522 -17.2219
lfingers 7.12502
lthumb -0.56707 12.7571
rfemur -50.2337 1.33666 17.6805
rtibia 33.5398
rfoot -7.64188 5.14046
rtoes -8.12219
lfemur 28.6027 -3.21488 -28.0771
ltibia -2.8625e-014
lfoot 1.58173 -7.06182
ltoes -4.22541
174
root 7.2484 15.3623 3.74943 7.53153 3.27705 4.43167
lowerback 0.0636699 -3.50308 -3.3789
upperback -2.76563 -4.71347 0.898886
thorax -2.53366 -2.26884 2.90392
lowerneck -10.809 1.0071 0.0319522
upperneck 10.0639 1.57384 -1.84135
head 4.80606 0.653663 -0.461875
rclavicle 1.88845e-015 -2.38542e-015
rhumerus -88.8734 -18.6112 -10.0659
rradius 14.6912
rwrist 38.0982
rhand -15.2441 -35.6755
rfingers 7.12502
rthumb 10.9293 -65.371
lclavicle 1.88845e-015 -2.38542e-015
lhumerus 28.6219 -3.59817 75.6803
lradius 38.4152
lwrist 27.34
lhand -26.8524 -17.4347
lfingers 7.12502
lthumb -0.277527 12.5449
rfemur -50.6567 1.64921 17.4671
rtibia 35.589
rfoot -5.66351 4.96232
rtoes 0.735619
lfemur 29.3404 -3.31837 -27.9633
ltibia -6.67916e-014
lfoot 4.7847 -5.87413
ltoes 3.693
175
root 7.25251 15.3343 4.01376 7.53779 3.01318 4.24288
lowerback 0.0708756 -3.34247 -2.86167
upperback -2.73969 -4.48992 0.918765
thorax -2.56335 -2.1682 2.6347
lowerneck -10.9996 0.967555 0.122631
upperneck 10.0714 1.52877 -2.01742
head 4.84182 0.62243 -0.533637
rclavicle -3.38928e-014 -1.03368e-014
rhumerus -90.1287 -18.8665 -6.58407
rradius 14.4603
rwrist 41.2089
rhand -15.1984 -35.5296
rfingers 7.12502
rthumb 10.9734 -65.2228
lclavicle -3.38928e-014 -1.03368e-014
lhumerus 27.9942 -3.24365 76.2473
lradius 39.1469
lwrist 26.6647
lhand -26.7287 -17.8288
lfingers 7.12502
lthumb -0.158106 12.1509
rfemur -50.9667 2.14915 17.5461
rtibia 37.6861
rfoot -4.54874 4.62536
rtoes 3.79309
lfemur 30.1723 -3.18452 -27.7138
ltibia 9.54166e-015
lfoot 7.66227 -4.36539
ltoes 5.44745
176
root 7.25341 15.3145 4.26377 7.66969 2.57275 3.78786
lowerback 0.317749 -3.17557 -2.37221
upperback -2.90928 -4.25924 1.21417
thorax -2.90442 -2.05271 2.68584
lowerneck -11.0612 0.930214 0.03255
upperneck 10.0315 1.52884 -2.31485
head 4.84181 0.599497 -0.611047
rclavicle -1.71203e-014 -1.43125e-014
rhumerus -90.8433 -18.9676 -3.80099
rradius 14.4295
rwrist 43.8083
rhand -14.4373 -35.2422
rfingers 7.12502
rthumb 11.7074 -64.8951
lclavicle -1.71203e-014 -1.43125e-014
lhumerus 27.0271 -2.83703 76.8445
lradius 39.8437
lwrist 26.3333
lhand -26.8167 -18.0042
lfingers 7.12502
lthumb -0.243064 11.9754
rfemur -51.348 2.77867 18.0027
rtibia 39.8116
rfoot -4.33709 4.54517
rtoes -0.0177257
lfemur 30.7415 -2.86619 -27.2016
ltibia -6.36111e-014
lfoot 10.6745 -2.28265
ltoes 4.6396
177
root 7.25758 15.31 4.51475 7.87829 2.32596 3.24097
lowerback 0.490017 -3.0828 -1.85147
upperback -3.06726 -4.11674 1.63215
thorax -3.17892 -1.98312 2.84032
lowerneck -11.1626 0.933073 -0.206405
upperneck 9.94505 1.59607 -2.52771
head 4.83322 0.609507 -0.632999
rclavicle -2.73329e-014 -1.35174e-014
rhumerus -91.3981 -19.3757 -0.628342
rradius 14.2528
rwrist 46.7924
rhand -13.9975 -35.5393
rfingers 7.12502
rthumb 12.1315 -65.1676
lclavicle -2.73329e-014 -1.35174e-014
lhumerus 26.1842 -2.67378 77.0712
lradius 40.3703
lwrist 26.6972
lhand -27.0311 -18.1326
lfingers 7.12502
lthumb -0.450089 11.8467
rfemur -51.7108 2.93815 18.7784
rtibia 41.824
rfoot -4.54764 4.57678
rtoes -8.75744
lfemur 31.0219 -2.72716 -26.5869
ltibia 1.27222e-014
lfoot 14.0372 0.352095
ltoes 5.68921
178
root 7.26475 15.3091 4.76528 8.07748 2.02635 2.60374
lowerback 0.53599 -2.93304 -1.08721
upperback -3.17523 -3.88998 1.92278
thorax -3.3599 -1.88291 2.71548
lowerneck -11.2088 0.957591 -0.209391
upperneck 9.86999 1.65325 -2.73448
head 4.82043 0.624447 -0.692292
rclavicle 1.96051e-014 5.56597e-015
rhumerus -92.0846 -19.8871 2.04935
rradius 14.1586
rwrist 49.441
rhand -14.2416 -36.0858
rfingers 7.12502
rthumb 11.8962 -65.7278
lclavicle 1.96051e-014 5.56597e-015
lhumerus 25.4951 -2.64749 77.2222
lradius 40.4852
lwrist 26.9674
lhand -27.2427 -18.3357
lfingers 7.12502
lthumb -0.654483 11.6431
rfemur -52.0307 2.95647 19.731
rtibia 43.7046
rfoot -5.04997 4.90269
rtoes -11.0963
lfemur 31.161 -2.51787 -25.8921
ltibia 6.04305e-014
lfoot 17.3949 2.93897
ltoes 8.41472
179
root 7.26906 15.3214 5.01335 8.27226 1.59595 2.19789
lowerback 0.582692 -2.73079 -0.547988
upperback -3.26674 -3.60028 2.08696
thorax -3.51861 -1.74846 2.58206
lowerneck -11.0561 0.993016 -0.332638
upperneck 9.64863 1.72062 -2.7991
head 4.72731 0.65273 -0.688121
rclavicle 5.45912e-014 1.82882e-014
rhumerus -92.8035 -20.4327 4.17946
rradius 14.1241
rwrist 51.5604
rhand -14.8303 -36.1854
rfingers 7.12502
rthumb 11.3284 -65.8595
lclavicle 5.45912e-014 1.82882e-014
lhumerus 23.731 -3.62474 76.5763
lradius 42.3732
lwrist 28.3773
lhand -27.5221 -17.0797
lfingers 7.12502
lthumb -0.924309 12.898
rfemur -52.2045 3.00761 20.4441
rtibia 45.3359
rfoot -5.44545 5.61686
rtoes -5.67838
lfemur 25.7004 -2.18388 -25.4282
ltibia 10.631
lfoot 16.6663 1.06473
ltoes 5.5409
